<?xml version="1.0" encoding="utf-8"?>
<svg version="1.1" xmlns:xlink="http://www.w3.org/1999/xlink" width="660px" height="126px" xmlns="http://www.w3.org/2000/svg">
  <g transform="matrix(1 0 0 1 -336 -260 )">
    <path d="M 336.5 341  C 336.5 341  336.5 270  336.5 270  C 336.5 264.753294876607  340.753294876607 260.5  346 260.5  C 346 260.5  986 260.5  986 260.5  C 991.246705123393 260.5  995.5 264.753294876607  995.5 270  C 995.5 270  995.5 341  995.5 341  C 995.5 346.246705123393  991.246705123393 350.5  986 350.5  C 986 350.5  430.884750026301 350.5  430.884750026301 350.5  C 430.884750026301 350.5  344.726971869799 384.713099852774  344.726971869799 384.713099852774  C 344.726971869799 384.713099852774  372.420543420103 350.5  372.420543420103 350.5  C 372.420543420103 350.5  346 350.5  346 350.5  C 340.753294876607 350.5  336.5 346.246705123393  336.5 341  Z " fill-rule="nonzero" fill="#ffffff" stroke="none" />
    <path d="M 336 341  C 336 341  336 270  336 270  C 336 264.477152501692  340.477152501692 260  346 260  C 346 260  986 260  986 260  C 991.522847498308 260  996 264.477152501692  996 270  C 996 270  996 341  996 341  C 996 346.522847498308  991.522847498308 351  986 351  C 986 351  430.980392156861 351  430.980392156861 351  C 430.980392156861 351  343.137254901961 385.882352941179  343.137254901961 385.882352941179  C 343.137254901961 385.882352941179  371.372549019607 351  371.372549019607 351  C 371.372549019607 351  346 351  346 351  C 340.477152501692 351  336 346.522847498308  336 341  Z M 337 341  C 337 345.970562748477  341.029437251523 350  346 350  C 346 350  373.468537820598 350  373.468537820598 350  C 373.468537820598 350  346.316688837637 383.54384676437  346.316688837637 383.54384676437  C 346.316688837637 383.54384676437  430.78910789574 350  430.78910789574 350  C 430.78910789574 350  986 350  986 350  C 990.970562748477 350  995 345.970562748477  995 341  C 995 341  995 270  995 270  C 995 265.029437251523  990.970562748477 261  986 261  C 986 261  346 261  346 261  C 341.029437251523 261  337 265.029437251523  337 270  C 337 270  337 341  337 341  Z " fill-rule="nonzero" fill="#797979" stroke="none" />
  </g>
</svg>