<?xml version="1.0" encoding="utf-8"?>
<svg version="1.1" xmlns:xlink="http://www.w3.org/1999/xlink" width="660px" height="135px" xmlns="http://www.w3.org/2000/svg">
  <g transform="matrix(1 0 0 1 -336 -112 )">
    <path d="M 336.5 193  C 336.5 193  336.5 122  336.5 122  C 336.5 116.753294876607  340.753294876607 112.5  346 112.5  C 346 112.5  986 112.5  986 112.5  C 991.246705123392 112.5  995.5 116.753294876607  995.5 122  C 995.5 122  995.5 193  995.5 193  C 995.5 198.246705123393  991.246705123392 202.5  986 202.5  C 986 202.5  968.124188069535 202.5  968.124188069535 202.5  C 968.124188069535 202.5  994.13654077052 244.712692949319  994.13654077052 244.712692949319  C 994.13654077052 244.712692949319  926.810451426793 202.5  926.810451426793 202.5  C 926.810451426793 202.5  346 202.5  346 202.5  C 340.753294876607 202.5  336.5 198.246705123393  336.5 193  Z " fill-rule="nonzero" fill="#ffffff" stroke="none" />
    <path d="M 336 193  C 336 193  336 122  336 122  C 336 116.477152501692  340.477152501692 112  346 112  C 346 112  986 112  986 112  C 991.522847498308 112  996 116.477152501692  996 122  C 996 122  996 193  996 193  C 996 198.522847498308  991.522847498308 203  986 203  C 986 203  969.019607843135 203  969.019607843135 203  C 969.019607843135 203  995.686274509802 246.274509803922  995.686274509802 246.274509803922  C 995.686274509802 246.274509803922  926.666666666664 203  926.666666666664 203  C 926.666666666664 203  346 203  346 203  C 340.477152501692 203  336 198.522847498308  336 193  Z M 337 193  C 337 197.970562748477  341.029437251523 202  346 202  C 346 202  926.954236186925 202  926.954236186925 202  C 926.954236186925 202  992.586807031237 243.150876094715  992.586807031237 243.150876094715  C 992.586807031237 243.150876094715  967.228768295934 202  967.228768295934 202  C 967.228768295934 202  986 202  986 202  C 990.970562748477 202  995 197.970562748477  995 193  C 995 193  995 122  995 122  C 995 117.029437251523  990.970562748477 113  986 113  C 986 113  346 113  346 113  C 341.029437251523 113  337 117.029437251523  337 122  C 337 122  337 193  337 193  Z " fill-rule="nonzero" fill="#797979" stroke="none" />
  </g>
</svg>