<?xml version="1.0" encoding="utf-8"?>
<svg version="1.1" xmlns:xlink="http://www.w3.org/1999/xlink" width="33px" height="27px" xmlns="http://www.w3.org/2000/svg">
  <g transform="matrix(1 0 0 1 -312 -577 )">
    <path d="M 32.591796875 22.00078125  C 32.8639322916667 22.26796875  33 22.584375  33 22.95  L 33 25.65  C 33 26.015625  32.8639322916667 26.33203125  32.591796875 26.59921875  C 32.3196614583333 26.86640625  31.9973958333333 27  31.625 27  L 1.375 27  C 1.00260416666667 27  0.680338541666667 26.86640625  0.408203125 26.59921875  C 0.136067708333333 26.33203125  0 26.015625  0 25.65  L 0 22.95  C 0 22.584375  0.136067708333333 22.26796875  0.408203125 22.00078125  C 0.680338541666667 21.73359375  1.00260416666667 21.6  1.375 21.6  L 31.625 21.6  C 31.9973958333333 21.6  32.3196614583333 21.73359375  32.591796875 22.00078125  Z M 32.591796875 11.20078125  C 32.8639322916667 11.46796875  33 11.784375  33 12.15  L 33 14.85  C 33 15.215625  32.8639322916667 15.53203125  32.591796875 15.79921875  C 32.3196614583333 16.06640625  31.9973958333333 16.2  31.625 16  L 1.375 16  C 1.00260416666667 16.2  0.680338541666667 16.06640625  0.408203125 15.79921875  C 0.136067708333333 15.53203125  0 15.215625  0 14.85  L 0 12.15  C 0 11.784375  0.136067708333333 11.46796875  0.408203125 11.20078125  C 0.680338541666667 10.93359375  1.00260416666667 10.8  1.375 11  L 31.625 11  C 31.9973958333333 10.8  32.3196614583333 10.93359375  32.591796875 11.20078125  Z M 32.591796875 0.400781250000001  C 32.8639322916667 0.667968749999998  33 0.984374999999998  33 1.35  L 33 4.05  C 33 4.415625  32.8639322916667 4.73203125  32.591796875 4.99921875  C 32.3196614583333 5.26640625  31.9973958333333 5.4  31.625 5.4  L 1.375 5.4  C 1.00260416666667 5.4  0.680338541666667 5.26640625  0.408203125 4.99921875  C 0.136067708333333 4.73203125  0 4.415625  0 4.05  L 0 1.35  C 0 0.984374999999998  0.136067708333333 0.667968749999998  0.408203125 0.400781250000001  C 0.680338541666667 0.133593749999998  1.00260416666667 0  1.375 0  L 31.625 0  C 31.9973958333333 0  32.3196614583333 0.133593749999998  32.591796875 0.400781250000001  Z " fill-rule="nonzero" fill="#ffffff" stroke="none" transform="matrix(1 0 0 1 312 577 )" />
  </g>
</svg>