<?xml version="1.0" encoding="utf-8"?>
<svg version="1.1" xmlns:xlink="http://www.w3.org/1999/xlink" width="50px" height="50px" xmlns="http://www.w3.org/2000/svg">
  <g transform="matrix(1 0 0 1 -130 -330 )">
    <path d="M 155 330  C 169 330  180 341  180 355  C 180 369  169 380  155 380  C 141 380  130 369  130 355  C 130 341  141 330  155 330  Z " fill-rule="nonzero" fill="#ffffff" stroke="none" />
    <path d="M 155 330.5  C 168.72 330.5  179.5 341.28  179.5 355  C 179.5 368.72  168.72 379.5  155 379.5  C 141.28 379.5  130.5 368.72  130.5 355  C 130.5 341.28  141.28 330.5  155 330.5  Z " stroke-width="1" stroke="#797979" fill="none" />
  </g>
</svg>