<?xml version="1.0" encoding="utf-8"?>
<svg version="1.1" xmlns:xlink="http://www.w3.org/1999/xlink" width="45px" height="33px" xmlns="http://www.w3.org/2000/svg">
  <g transform="matrix(1 0 0 1 -19 -23 )">
    <path d="M 44.443359375 26.88984375  C 44.814453125 27.21640625  45 27.603125  45 28.05  L 45 31.35  C 45 31.796875  44.814453125 32.18359375  44.443359375 32.51015625  C 44.072265625 32.83671875  43.6328125 33  43.125 33  L 1.875 33  C 1.3671875 33  0.927734375 32.83671875  0.556640625 32.51015625  C 0.185546875 32.18359375  0 31.796875  0 31.35  L 0 28.05  C 0 27.603125  0.185546875 27.21640625  0.556640625 26.88984375  C 0.927734375 26.56328125  1.3671875 26.4  1.875 26  L 43.125 26  C 43.6328125 26.4  44.072265625 26.56328125  44.443359375 26.88984375  Z M 44.443359375 13.68984375  C 44.814453125 14.01640625  45 14.403125  45 14.85  L 45 18.15  C 45 18.596875  44.814453125 18.98359375  44.443359375 19.31015625  C 44.072265625 19.63671875  43.6328125 19.8  43.125 19.8  L 1.875 19.8  C 1.3671875 19.8  0.927734375 19.63671875  0.556640625 19.31015625  C 0.185546875 18.98359375  0 18.596875  0 18.15  L 0 14.85  C 0 14.403125  0.185546875 14.01640625  0.556640625 13.68984375  C 0.927734375 13.36328125  1.3671875 13.2  1.875 13.2  L 43.125 13.2  C 43.6328125 13.2  44.072265625 13.36328125  44.443359375 13.68984375  Z M 44.443359375 0.489843750000001  C 44.814453125 0.816406249999998  45 1.203125  45 1.65  L 45 4.95  C 45 5.396875  44.814453125 5.78359375  44.443359375 6.11015625  C 44.072265625 6.43671875  43.6328125 6.6  43.125 7  L 1.875 7  C 1.3671875 6.6  0.927734375 6.43671875  0.556640625 6.11015625  C 0.185546875 5.78359375  0 5.396875  0 4.95  L 0 1.65  C 0 1.203125  0.185546875 0.816406249999998  0.556640625 0.489843750000001  C 0.927734375 0.163281249999998  1.3671875 0  1.875 0  L 43.125 0  C 43.6328125 0  44.072265625 0.163281249999998  44.443359375 0.489843750000001  Z " fill-rule="nonzero" fill="#ffffff" stroke="none" transform="matrix(1 0 0 1 19 23 )" />
  </g>
</svg>