<?xml version="1.0" encoding="utf-8"?>
<svg version="1.1" xmlns:xlink="http://www.w3.org/1999/xlink" width="44px" height="31px" xmlns="http://www.w3.org/2000/svg">
  <g transform="matrix(1 0 0 1 -48 -97 )">
    <path d="M 32.2633928571429 5.61036195883605  C 33.8020833333333 7.34114028862077  34.5714285714286 9.2259285545304  34.5714285714286 11.2647267565649  C 34.5714285714286 13.3035249585995  33.8020833333333 15.1883132245091  32.2633928571429 16.9190915542938  C 30.7247023809524 18.6498698840785  28.6253720238095 20.0176247929974  25.9654017857143 21.0223562810504  C 23.305431547619 22.0270877691034  20.4122023809524 22.5294535131299  17.2857142857143 22.5294535131299  C 15.8779761904762 22.5294535131299  14.4375 22.4121126094157  12.9642857142857 22.1774308019872  C 10.9345238095238 23.4681807428436  8.65922619047619 24.4069079725574  6.13839285714286 24.9936124911285  C 5.54910714285714 25.125621007807  4.8452380952381 25.2429619115212  4.02678571428571 25.3456352022711  L 3.953125 25.3456352022711  C 3.77306547619048 25.3456352022711  3.60528273809524 25.286964750414  3.44977678571429 25.1696238466998  C 3.29427083333333 25.0522829429856  3.20014880952381 24.8982730068607  3.16741071428571 24.7075940383251  C 3.15104166666667 24.6635911994322  3.14285714285714 24.6159214572983  3.14285714285714 24.5645848119234  C 3.14285714285714 24.5132481665484  3.14694940476191 24.4655784244145  3.15513392857143 24.4215755855216  C 3.16331845238095 24.3775727466288  3.1796875 24.333569907736  3.20424107142857 24.2895670688432  L 3.265625 24.1795599716111  C 3.265625 24.1795599716111  3.29427083333333 24.1392240359593  3.3515625 24.0585521646558  C 3.40885416666667 23.9778802933523  3.44159226190476 23.9412112609416  3.44977678571429 23.9485450674237  C 3.45796130952381 23.9558788739058  3.49479166666667 23.9192098414952  3.56026785714286 23.8385379701916  C 3.62574404761905 23.7578660988881  3.65848214285714 23.7248639697185  3.65848214285714 23.7395315826828  C 3.74032738095238 23.6515259048971  3.92857142857143 23.4681807428436  4.22321428571429 23.1894960965224  C 4.51785714285714 22.9108114502011  4.73065476190476 22.694464158978  4.86160714285714 22.5404542228531  C 4.99255952380952 22.3864442867282  5.17671130952381 22.1737638987462  5.4140625 21.902413058907  C 5.65141369047619 21.6310622190679  5.85602678571429 21.3487106695056  6.02790178571429 21.05535841022  C 6.19977678571429 20.7620061509345  6.36755952380952 20.4393186657204  6.53125 20.0872959545777  C 4.50148809523809 19.0312278211498  2.90550595238095 17.7331440738112  1.74330357142857 16.1930447125621  C 0.58110119047619 14.652945351313  0 13.0101726993139  0 11.2647267565649  C 0 9.2259285545304  0.769345238095238 7.34114028862077  2.30803571428571 5.61036195883605  C 3.84672619047619 3.87958362905133  5.94605654761905 2.51182872013248  8.60602678571428 1.50709723207949  C 11.2659970238095 0.502365744026496  14.1592261904762 0  17.2857142857143 0  C 20.4122023809524 0  23.305431547619 0.502365744026496  25.9654017857143 1.50709723207949  C 28.6253720238095 2.51182872013248  30.7247023809524 3.87958362905133  32.2633928571429 5.61036195883605  Z M 42.1584821428571 11.8367636621718  C 43.3861607142857 13.4061982493494  44 15.0929737402413  44 16.8970901348474  C 44 18.6572036905607  43.4188988095238 20.3036432458008  42.2566964285714 21.8364088005678  C 41.0944940476191 23.3691743553348  39.4985119047619 24.6635911994322  37.46875 25.7196593328602  C 37.6324404761905 26.0716820440028  37.8002232142857 26.3943695292169  37.9720982142857 26.6877217885025  C 38.1439732142857 26.981074047788  38.3485863095238 27.2634255973504  38.5859375 27.5347764371895  C 38.8232886904762 27.8061272770286  39.0074404761905 28.0188076650106  39.1383928571429 28.1728176011356  C 39.2693452380952 28.3268275372605  39.4821428571429 28.5431748284836  39.7767857142857 28.8218594748048  C 40.0714285714286 29.1005441211261  40.2596726190476 29.2838892831796  40.3415178571429 29.3718949609652  C 40.3578869047619 29.3865625739295  40.390625 29.4195647030991  40.4397321428571 29.4709013484741  C 40.4888392857143 29.5222379938491  40.5256696428571 29.5589070262598  40.5502232142857 29.5809084457062  C 40.5747767857143 29.6029098651526  40.6075148809524 29.6395788975633  40.6484375 29.6909155429383  C 40.6893601190476 29.7422521883132  40.718005952381 29.782588123965  40.734375 29.8119233498935  L 40.7957589285714 29.9219304471256  C 40.7957589285714 29.9219304471256  40.8121279761905 29.9659332860185  40.8448660714286 30.0539389638041  C 40.8776041666667 30.1419446415898  40.8816964285714 30.1896143837237  40.8571428571429 30.1969481902058  C 40.8325892857143 30.204281996688  40.8244047619048 30.2519517388219  40.8325892857143 30.3399574166075  C 40.7834821428571 30.5453039981074  40.6770833333333 30.7066477407145  40.5133928571429 30.8239886444287  C 40.3497023809524 30.9413295481429  40.1696428571429 30.9926661935179  39.9732142857143 30.9779985805536  C 39.1547619047619 30.8753252898036  38.4508928571429 30.7579843860894  37.8616071428571 30.6259758694109  C 35.3407738095238 30.0392713508398  33.0654761904762 29.1005441211261  31.0357142857143 27.8097941802697  C 29.5625 28.0444759876981  28.1220238095238 28.1618168914123  26.7142857142857 28.1618168914123  C 22.2782738095238 28.1618168914123  18.4151785714286 27.1937544357701  15.125 25.2576295244855  C 16.0744047619048 25.3162999763426  16.7946428571429 25.3456352022711  17.2857142857143 25.3456352022711  C 19.921130952381 25.3456352022711  22.4501488095238 25.0156139105749  24.8727678571429 24.3555713271824  C 27.2953869047619 23.6955287437899  29.4561011904762 22.749467707594  31.3549107142857 21.5173882185948  C 33.4010416666667 20.1679678258812  34.9724702380952 18.6132008516678  36.0691964285714 16.8530872959546  C 37.1659226190476 15.0929737402413  37.7142857142857 13.2301868937781  37.7142857142857 11.2647267565649  C 37.7142857142857 10.1353205583156  37.5260416666667 9.02058197303052  37.1495535714286 7.92051100070972  C 39.2611607142857 8.96191152117341  40.9308035714286 10.2673290749941  42.1584821428571 11.8367636621718  Z " fill-rule="nonzero" fill="#03b615" stroke="none" transform="matrix(1 0 0 1 48 97 )" />
  </g>
</svg>