<?xml version="1.0" encoding="utf-8"?>
<svg version="1.1" xmlns:xlink="http://www.w3.org/1999/xlink" width="45px" height="42px" xmlns="http://www.w3.org/2000/svg">
  <g transform="matrix(1 0 0 1 -48 -218 )">
    <path d="M 27.802734375 25.94921875  C 29.267578125 24.58203125  30 22.9322916666667  30 21  C 30 19.0677083333333  29.267578125 17.41796875  27.802734375 16.05078125  C 26.337890625 14.68359375  24.5703125 14  22.5 14  C 20.4296875 14  18.662109375 14.68359375  17.197265625 16.05078125  C 15.732421875 17.41796875  15 19.0677083333333  15 21  C 15 22.9322916666667  15.732421875 24.58203125  17.197265625 25.94921875  C 18.662109375 27.31640625  20.4296875 28  22.5 28  C 24.5703125 28  26.337890625 27.31640625  27.802734375 25.94921875  Z M 44.765625 17.376953125  C 44.921875 17.568359375  45 17.7825520833333  45 18.01953125  L 45 24.08984375  C 45 24.30859375  44.921875 24.5182291666667  44.765625 24.71875  C 44.609375 24.9192708333333  44.4140625 25.0377604166667  44.1796875 25.07421875  L 38.759765625 25.83984375  C 38.388671875 26.82421875  38.0078125 27.6536458333333  37.6171875 28.328125  C 38.30078125 29.2395833333333  39.345703125 30.4973958333333  40.751953125 32.1015625  C 40.947265625 32.3203125  41.044921875 32.5481770833333  41.044921875 32.78515625  C 41.044921875 33.0221354166667  40.95703125 33.2317708333333  40.78125 33.4140625  C 40.25390625 34.0885416666667  39.287109375 35.0729166666667  37.880859375 36.3671875  C 36.474609375 37.6614583333333  35.556640625 38.30859375  35.126953125 38.30859375  C 34.892578125 38.30859375  34.638671875 38.2265625  34.365234375 38.0625  L 30.322265625 35.109375  C 29.462890625 35.5286458333333  28.57421875 35.875  27.65625 36.1484375  C 27.34375 38.6276041666667  27.060546875 40.3229166666667  26.806640625 41.234375  C 26.669921875 41.7447916666667  26.318359375 42  25.751953125 42  L 19.248046875 42  C 18.974609375 42  18.7353515625 41.9225260416667  18.5302734375 41.767578125  C 18.3251953125 41.6126302083333  18.212890625 41.4166666666667  18.193359375 41.1796875  L 17.373046875 36.1484375  C 16.416015625 35.8567708333333  15.537109375 35.51953125  14.736328125 35.13671875  L 10.60546875 38.0625  C 10.41015625 38.2265625  10.166015625 38.30859375  9.873046875 38.30859375  C 9.599609375 38.30859375  9.35546875 38.2083333333333  9.140625 38.0078125  C 6.6796875 35.9296875  5.068359375 34.3984375  4.306640625 33.4140625  C 4.169921875 33.2317708333333  4.1015625 33.0221354166667  4.1015625 32.78515625  C 4.1015625 32.56640625  4.1796875 32.3567708333333  4.3359375 32.15625  C 4.62890625 31.7734375  5.126953125 31.1673177083333  5.830078125 30.337890625  C 6.533203125 29.5084635416667  7.060546875 28.8658854166667  7.412109375 28.41015625  C 6.884765625 27.4986979166667  6.484375 26.5963541666667  6.2109375 25.703125  L 0.849609375 24.96484375  C 0.595703125 24.9283854166667  0.390625 24.814453125  0.234375 24.623046875  C 0.078125 24.431640625  0 24.2174479166667  0 23.98046875  L 0 17.91015625  C 0 17.69140625  0.078125 17.4817708333333  0.234375 17.28125  C 0.390625 17.0807291666667  0.576171875 16.9622395833333  0.791015625 16.92578125  L 6.240234375 16.16015625  C 6.513671875 15.3216145833333  6.89453125 14.4830729166667  7.3828125 13.64453125  C 6.6015625 12.60546875  5.556640625 11.34765625  4.248046875 9.87109375  C 4.052734375 9.65234375  3.955078125 9.43359375  3.955078125 9.21484375  C 3.955078125 9.03255208333333  4.04296875 8.82291666666666  4.21875 8.5859375  C 4.7265625 7.9296875  5.6884765625 6.94986979166666  7.1044921875 5.646484375  C 8.5205078125 4.34309895833333  9.443359375 3.69140625  9.873046875 3.69140625  C 10.126953125 3.69140625  10.380859375 3.78255208333333  10.634765625 3.96484375  L 14.677734375 6.890625  C 15.537109375 6.47135416666666  16.42578125 6.125  17.34375 5.8515625  C 17.65625 3.37239583333333  17.939453125 1.67708333333333  18.193359375 0.765624999999998  C 18.330078125 0.255208333333331  18.681640625 0  19.248046875 0  L 25.751953125 0  C 26.025390625 0  26.2646484375 0.0774739583333297  26.4697265625 0.232421874999998  C 26.6748046875 0.387369791666663  26.787109375 0.583333333333331  26.806640625 0.8203125  L 27.626953125 5.8515625  C 28.583984375 6.14322916666666  29.462890625 6.48046875  30.263671875 6.86328125  L 34.423828125 3.9375  C 34.599609375 3.7734375  34.833984375 3.69140625  35.126953125 3.69140625  C 35.380859375 3.69140625  35.625 3.78255208333333  35.859375 3.96484375  C 38.37890625 6.13411458333333  39.990234375 7.68359375  40.693359375 8.61328125  C 40.830078125 8.75911458333333  40.8984375 8.95963541666666  40.8984375 9.21484375  C 40.8984375 9.43359375  40.8203125 9.64322916666666  40.6640625 9.84375  C 40.37109375 10.2265625  39.873046875 10.8326822916667  39.169921875 11.662109375  C 38.466796875 12.4915364583333  37.939453125 13.1341145833333  37.587890625 13.58984375  C 38.095703125 14.5013020833333  38.49609375 15.39453125  38.7890625 16.26953125  L 44.150390625 17.03515625  C 44.404296875 17.0716145833333  44.609375 17.185546875  44.765625 17.376953125  Z " fill-rule="nonzero" fill="#039d12" stroke="none" transform="matrix(1 0 0 1 48 218 )" />
  </g>
</svg>