<?xml version="1.0" encoding="utf-8"?>
<svg version="1.1" xmlns:xlink="http://www.w3.org/1999/xlink" width="37px" height="42px" xmlns="http://www.w3.org/2000/svg">
  <g transform="matrix(1 0 0 1 -48 -151 )">
    <path d="M 25.5338541666667 1.59375  L 35.3619791666667 11.15625  C 35.5868055555556 11.375  35.8116319444445 11.65625  36.0364583333333 12  L 24 12  L 24 0.937500000000001  C 25.0199652777778 1.15625  25.3090277777778 1.375  25.5338541666667 1.59375  Z M 22.2578125 14.34375  C 22.7074652777778 14.78125  23.2534722222222 15  23.8958333333333 15  L 37 15  L 37 39.75  C 37 40.375  36.7751736111111 40.90625  36.3255208333333 41.34375  C 35.8758680555556 41.78125  35.3298611111111 42  34.6875 42  L 2.3125 42  C 1.67013888888889 42  1.12413194444444 41.78125  0.674479166666667 41.34375  C 0.224826388888889 40.90625  0 40.375  0 39.75  L 0 2.25  C 0 1.625  0.224826388888889 1.09375  0.674479166666667 0.65625  C 1.12413194444444 0.218750000000002  1.67013888888889 0  2.3125 0  L 21 0  L 21 12.75  C 21.5833333333333 13.375  21.8081597222222 13.90625  22.2578125 14.34375  Z M 27.533203125 32.7890625  C 27.677734375 32.6484375  27.75 32.46875  27.75 32.25  L 27.75 30.75  C 27.75 30.53125  27.677734375 30.3515625  27.533203125 30.2109375  C 27.388671875 30.0703125  27.2039930555556 30  26.9791666666667 30  L 10.0208333333333 30  C 9.79600694444445 30  9.611328125 30.0703125  9.466796875 30.2109375  C 9.322265625 30.3515625  9.25 30.53125  9.25 30.75  L 9.25 32.25  C 9.25 32.46875  9.322265625 32.6484375  9.466796875 32.7890625  C 9.611328125 32.9296875  9.79600694444445 33  10.0208333333333 33  L 26.9791666666667 33  C 27.2039930555556 33  27.388671875 32.9296875  27.533203125 32.7890625  Z M 27.533203125 26.7890625  C 27.677734375 26.6484375  27.75 26.46875  27.75 26.25  L 27.75 24.75  C 27.75 24.53125  27.677734375 24.3515625  27.533203125 24.2109375  C 27.388671875 24.0703125  27.2039930555556 24  26.9791666666667 24  L 10.0208333333333 24  C 9.79600694444445 24  9.611328125 24.0703125  9.466796875 24.2109375  C 9.322265625 24.3515625  9.25 24.53125  9.25 24.75  L 9.25 26.25  C 9.25 26.46875  9.322265625 26.6484375  9.466796875 26.7890625  C 9.611328125 26.9296875  9.79600694444445 27  10.0208333333333 27  L 26.9791666666667 27  C 27.2039930555556 27  27.388671875 26.9296875  27.533203125 26.7890625  Z M 27.533203125 20.7890625  C 27.677734375 20.6484375  27.75 20.46875  27.75 20.25  L 27.75 18.75  C 27.75 18.53125  27.677734375 18.3515625  27.533203125 18.2109375  C 27.388671875 18.0703125  27.2039930555556 18  26.9791666666667 18  L 10.0208333333333 18  C 9.79600694444445 18  9.611328125 18.0703125  9.466796875 18.2109375  C 9.322265625 18.3515625  9.25 18.53125  9.25 18.75  L 9.25 20.25  C 9.25 20.46875  9.322265625 20.6484375  9.466796875 20.7890625  C 9.611328125 20.9296875  9.79600694444445 21  10.0208333333333 21  L 26.9791666666667 21  C 27.2039930555556 21  27.388671875 20.9296875  27.533203125 20.7890625  Z " fill-rule="nonzero" fill="#039d12" stroke="none" transform="matrix(1 0 0 1 48 151 )" />
  </g>
</svg>