<?xml version="1.0" encoding="utf-8"?>
<svg version="1.1" xmlns:xlink="http://www.w3.org/1999/xlink" width="41px" height="34px" xmlns="http://www.w3.org/2000/svg">
  <g transform="matrix(1 0 0 1 -50 -346 )">
    <path d="M 8 17  L 13 17  L 13 28.3333333333333  L 8 28.3333333333333  L 8 17  Z M 16 5.66666666666667  L 20 5.66666666666667  L 20 28.3333333333333  L 16 28.3333333333333  L 16 5.66666666666667  Z M 3 31  L 41 31  L 41 34  L 0 34  L 0 0  L 3 0  L 3 31  Z M 23 11.3333333333333  L 28 11.3333333333333  L 28 28.3333333333333  L 23 28.3333333333333  L 23 11.3333333333333  Z M 30 2.83333333333333  L 35.875 2.83333333333333  L 35.875 28.3333333333333  L 30 28.3333333333333  L 30 2.83333333333333  Z " fill-rule="nonzero" fill="#03b615" stroke="none" transform="matrix(1 0 0 1 50 346 )" />
  </g>
</svg>