<?xml version="1.0" encoding="utf-8"?>
<svg version="1.1" xmlns:xlink="http://www.w3.org/1999/xlink" width="44px" height="42px" xmlns="http://www.w3.org/2000/svg">
  <g transform="matrix(1 0 0 1 -48 -287 )">
    <path d="M 26.5178571428571 27.2109375  C 26.6651785714286 27.2109375  26.7879464285714 27.2578125  26.8861607142857 27.3515625  C 27.1480654761905 27.6015625  27.1480654761905 27.84375  26.8861607142857 28.078125  C 25.8712797619048 29.046875  24.2425595238095 29.53125  22 29.53125  C 19.7574404761905 29.53125  18.1287202380952 29.046875  17.1138392857143 28.078125  C 16.8519345238095 27.84375  16.8519345238095 27.6015625  17.1138392857143 27.3515625  C 17.2120535714286 27.2578125  17.3348214285714 27.2109375  17.4821428571429 27.2109375  C 17.6294642857143 27.2109375  17.7522321428571 27.2578125  17.8504464285714 27.3515625  C 18.6361607142857 28.1171875  20.0193452380952 28.5  22 28.5  C 23.9642857142857 28.5  25.3474702380952 28.1171875  26.1495535714286 27.3515625  C 26.2477678571429 27.2578125  26.3705357142857 27.2109375  26.5178571428571 27.2109375  Z M 18.7098214285714 21.62109375  C 19.1354166666667 22.03515625  19.3482142857143 22.53125  19.3482142857143 23.109375  C 19.3482142857143 23.6875  19.1354166666667 24.1796875  18.7098214285714 24.5859375  C 18.2842261904762 24.9921875  17.7686011904762 25.1953125  17.1629464285714 25.1953125  C 16.5572916666667 25.1953125  16.0375744047619 24.9921875  15.6037946428571 24.5859375  C 15.1700148809524 24.1796875  14.953125 23.6875  14.953125 23.109375  C 14.953125 22.515625  15.1700148809524 22.015625  15.6037946428571 21.609375  C 16.0375744047619 21.203125  16.5572916666667 21  17.1629464285714 21  C 17.7686011904762 21  18.2842261904762 21.20703125  18.7098214285714 21.62109375  Z M 28.3962053571429 21.609375  C 28.8299851190476 22.015625  29.046875 22.515625  29.046875 23.109375  C 29.046875 23.6875  28.8299851190476 24.1796875  28.3962053571429 24.5859375  C 27.9624255952381 24.9921875  27.4427083333333 25.1953125  26.8370535714286 25.1953125  C 26.2313988095238 25.1953125  25.7157738095238 24.9921875  25.2901785714286 24.5859375  C 24.8645833333333 24.1796875  24.6517857142857 23.6875  24.6517857142857 23.109375  C 24.6517857142857 22.53125  24.8645833333333 22.03515625  25.2901785714286 21.62109375  C 25.7157738095238 21.20703125  26.2313988095238 21  26.8370535714286 21  C 27.4427083333333 21  27.9624255952381 21.203125  28.3962053571429 21.609375  Z M 34.7678571428571 21.78515625  C 35.0625 21.33984375  35.2098214285714 20.84375  35.2098214285714 20.296875  C 35.2098214285714 19.53125  34.9233630952381 18.875  34.3504464285714 18.328125  C 33.7775297619048 17.78125  33.0818452380952 17.5078125  32.2633928571429 17.5078125  C 31.4449404761905 17.5078125  30.7410714285714 17.7890625  30.1517857142857 18.3515625  C 28.0238095238095 16.9453125  25.4784226190476 16.1953125  22.515625 16.1015625  L 24.0625 9.46875  L 28.9732142857143 10.5234375  C 28.9732142857143 11.1015625  29.1860119047619 11.59375  29.6116071428571 12  C 30.0372023809524 12.40625  30.5528273809524 12.609375  31.1584821428571 12.609375  C 31.7641369047619 12.609375  32.2838541666667 12.40234375  32.7176339285714 11.98828125  C 33.1514136904762 11.57421875  33.3683035714286 11.078125  33.3683035714286 10.5  C 33.3683035714286 9.921875  33.1514136904762 9.42578125  32.7176339285714 9.01171875  C 32.2838541666667 8.59765625  31.7641369047619 8.390625  31.1584821428571 8.390625  C 30.2745535714286 8.390625  29.6197916666667 8.78124999999999  29.1941964285714 9.5625  L 23.7678571428571 8.4140625  C 23.4568452380952 8.3359375  23.2522321428571 8.4609375  23.1540178571429 8.7890625  L 21.4598214285714 16.1015625  C 18.5133928571429 16.2109375  15.984375 16.96875  13.8727678571429 18.375  C 13.2998511904762 17.796875  12.5877976190476 17.5078125  11.7366071428571 17.5078125  C 10.9181547619048 17.5078125  10.2224702380952 17.78125  9.64955357142857 18.328125  C 9.07663690476191 18.875  8.79017857142857 19.53125  8.79017857142857 20.296875  C 8.79017857142857 20.84375  8.94159226190476 21.34375  9.24441964285714 21.796875  C 9.54724702380952 22.25  9.95238095238095 22.59375  10.4598214285714 22.828125  C 10.3616071428571 23.25  10.3125 23.6875  10.3125 24.140625  C 10.3125 26.359375  11.4583333333333 28.2578125  13.75 29.8359375  C 16.0416666666667 31.4140625  18.7998511904762 32.203125  22.0245535714286 32.203125  C 25.265625 32.203125  28.031994047619 31.4140625  30.3236607142857 29.8359375  C 32.6153273809524 28.2578125  33.7611607142857 26.359375  33.7611607142857 24.140625  C 33.7611607142857 23.640625  33.7038690476191 23.1953125  33.5892857142857 22.8046875  C 34.0803571428571 22.5703125  34.4732142857143 22.23046875  34.7678571428571 21.78515625  Z M 42.2566964285714 12.84375  C 43.4188988095238 15.4375  44 18.15625  44 21  C 44 23.84375  43.4188988095238 26.5625  42.2566964285714 29.15625  C 41.0944940476191 31.75  39.53125 33.984375  37.5669642857143 35.859375  C 35.6026785714286 37.734375  33.2619047619048 39.2265625  30.5446428571429 40.3359375  C 27.827380952381 41.4453125  24.9791666666667 42  22 42  C 19.0208333333333 42  16.172619047619 41.4453125  13.4553571428571 40.3359375  C 10.7380952380952 39.2265625  8.39732142857143 37.734375  6.43303571428571 35.859375  C 4.46875 33.984375  2.90550595238095 31.75  1.74330357142857 29.15625  C 0.58110119047619 26.5625  0 23.84375  0 21  C 0 18.15625  0.58110119047619 15.4375  1.74330357142857 12.84375  C 2.90550595238095 10.25  4.46875 8.015625  6.43303571428571 6.140625  C 8.39732142857143 4.265625  10.7380952380952 2.7734375  13.4553571428571 1.6640625  C 16.172619047619 0.5546875  19.0208333333333 0  22 0  C 24.9791666666667 0  27.827380952381 0.5546875  30.5446428571429 1.6640625  C 33.2619047619048 2.7734375  35.6026785714286 4.265625  37.5669642857143 6.140625  C 39.53125 8.015625  41.0944940476191 10.25  42.2566964285714 12.84375  Z " fill-rule="nonzero" fill="#039d12" stroke="none" transform="matrix(1 0 0 1 48 287 )" />
  </g>
</svg>