<?xml version="1.0" encoding="utf-8"?>
<svg version="1.1" xmlns:xlink="http://www.w3.org/1999/xlink" width="44px" height="38px" xmlns="http://www.w3.org/2000/svg">
  <g transform="matrix(1 0 0 1 -20 -15 )">
    <path d="M 43.4557291666667 30.9640625  C 43.8185763888889 31.3401041666667  44 31.7854166666667  44 32.3  L 44 36.1  C 44 36.6145833333333  43.8185763888889 37.0598958333333  43.4557291666667 37.4359375  C 43.0928819444445 37.8119791666667  42.6631944444445 38  42.1666666666667 38  L 1.83333333333333 38  C 1.33680555555556 38  0.907118055555556 37.8119791666667  0.544270833333333 37.4359375  C 0.181423611111111 37.0598958333333  0 36.6145833333333  0 36.1  L 0 32.3  C 0 31.7854166666667  0.181423611111111 31.3401041666667  0.544270833333333 30.9640625  C 0.907118055555556 30.5880208333333  1.33680555555556 30.4  1.83333333333333 30  L 42.1666666666667 30  C 42.6631944444445 30.4  43.0928819444445 30.5880208333333  43.4557291666667 30.9640625  Z M 43.4557291666667 15.7640625  C 43.8185763888889 16.1401041666667  44 16.5854166666667  44 17.1  L 44 20.9  C 44 21.4145833333333  43.8185763888889 21.8598958333333  43.4557291666667 22.2359375  C 43.0928819444445 22.6119791666667  42.6631944444445 22.8  42.1666666666667 22.8  L 1.83333333333333 22.8  C 1.33680555555556 22.8  0.907118055555556 22.6119791666667  0.544270833333333 22.2359375  C 0.181423611111111 21.8598958333333  0 21.4145833333333  0 20.9  L 0 17.1  C 0 16.5854166666667  0.181423611111111 16.1401041666667  0.544270833333333 15.7640625  C 0.907118055555556 15.3880208333333  1.33680555555556 15.2  1.83333333333333 15.2  L 42.1666666666667 15.2  C 42.6631944444445 15.2  43.0928819444445 15.3880208333333  43.4557291666667 15.7640625  Z M 43.4557291666667 0.564062500000002  C 43.8185763888889 0.940104166666664  44 1.38541666666666  44 1.9  L 44 5.7  C 44 6.21458333333333  43.8185763888889 6.65989583333333  43.4557291666667 7.0359375  C 43.0928819444445 7.41197916666666  42.6631944444445 7.6  42.1666666666667 8  L 1.83333333333333 8  C 1.33680555555556 7.6  0.907118055555556 7.41197916666666  0.544270833333333 7.0359375  C 0.181423611111111 6.65989583333333  0 6.21458333333333  0 5.7  L 0 1.9  C 0 1.38541666666666  0.181423611111111 0.940104166666664  0.544270833333333 0.564062500000002  C 0.907118055555556 0.188020833333331  1.33680555555556 0  1.83333333333333 0  L 42.1666666666667 0  C 42.6631944444445 0  43.0928819444445 0.188020833333331  43.4557291666667 0.564062500000002  Z " fill-rule="nonzero" fill="#039d12" stroke="none" transform="matrix(1 0 0 1 20 15 )" />
  </g>
</svg>